<svg width="11" height="150" viewBox="0 0 11 150" fill="none" xmlns="http://www.w3.org/2000/svg">
<g clip-path="url(#clip0_0_429)">
<rect width="150" height="11" transform="translate(0 150) rotate(-90)" fill="#AE1300" style="fill:#AE1300;fill:color(display-p3 0.6843 0.0760 0.0000);fill-opacity:1;"/>
<path d="M9 145.604L8.38477 145.604L8.24805 144.809L2.64746 144.809L2.51074 145.604L1.89062 145.604L1.89062 144.809L1.89062 142.338C1.89062 141.83 1.98014 141.397 2.15918 141.039C2.33496 140.681 2.58236 140.408 2.90137 140.219C3.22038 140.03 3.5931 139.936 4.01953 139.936C4.44922 139.936 4.82357 140.03 5.14258 140.219C5.46159 140.408 5.70898 140.681 5.88477 141.039C6.06055 141.397 6.14844 141.83 6.14844 142.338L6.14844 143.847L8.24805 143.847L8.38477 143.051L9 143.051L9 145.604ZM5.39648 143.847L5.39648 142.338C5.39648 141.856 5.2679 141.496 5.01074 141.259C4.75033 141.018 4.42318 140.897 4.0293 140.897C3.63542 140.897 3.30664 141.018 3.04297 141.259C2.7793 141.496 2.64746 141.856 2.64746 142.338L2.64746 143.847L5.39648 143.847ZM9 139.267L8.38477 139.267L8.24805 138.471L2.64746 138.471L2.51074 139.267L1.89551 139.267L1.89551 136.098C1.89551 135.58 1.97363 135.144 2.12988 134.789C2.28288 134.431 2.50586 134.159 2.79883 133.974C3.0918 133.788 3.44987 133.695 3.87305 133.695C4.28971 133.695 4.63965 133.786 4.92285 133.969C5.20605 134.148 5.4209 134.403 5.56738 134.735C5.71061 135.067 5.78711 135.461 5.79687 135.917L5.82617 137.509L8.24805 137.509L8.38477 136.713L9 136.713L9 139.267ZM9 134.574L5.45019 136.156L5.44043 135.194L8.28223 133.881L8.37012 133.388L9 133.388L9 134.574ZM5.06934 137.509L5.06934 136.195C5.06934 135.658 4.9668 135.268 4.76172 135.023C4.55664 134.779 4.25716 134.657 3.86328 134.657C3.48893 134.657 3.19271 134.774 2.97461 135.009C2.75651 135.243 2.64746 135.606 2.64746 136.098L2.64746 137.509L5.06934 137.509ZM9 132.499L8.38477 132.499L8.24805 131.703L2.64746 131.703L2.51074 132.499L1.89062 132.499L1.89062 127.235L3.59961 127.235L3.59961 128.007L2.63281 128.114L2.63281 130.741L4.94726 130.741L4.94726 128.119L5.7041 128.119L5.7041 130.741L8.27734 130.741L8.27734 127.958L7.2959 127.851L7.2959 127.084L9 127.084L9 132.499ZM9 126.059L8.38476 126.059L8.24805 125.263L2.64746 125.263L2.51074 126.059L1.89062 126.059L1.89062 125.263L1.89062 123.979L7.28613 121.688L7.28613 121.659L1.89062 119.442L1.89062 117.299L2.51074 117.299L2.64746 118.095L8.24805 118.095L8.38476 117.299L9 117.299L9 119.853L8.38476 119.853L8.24805 119.013L6.1875 119.013L3.2041 119.013L3.19922 119.037L8.74609 121.347L8.74609 121.986L3.20898 124.374L3.21387 124.398L6.1875 124.364L8.24805 124.364L8.38476 123.505L9 123.505L9 126.059ZM9 116.444L8.38476 116.444L8.24805 115.648L2.64746 115.648L2.51074 116.444L1.89062 116.444L1.89062 113.891L2.51074 113.891L2.64746 114.687L8.24805 114.687L8.38476 113.891L9 113.891L9 116.444ZM9.10254 109.804C9.10254 110.292 9.00651 110.728 8.81445 111.112C8.62239 111.496 8.34896 111.799 7.99414 112.021C7.63607 112.242 7.20801 112.353 6.70996 112.353L2.64746 112.353L2.51074 113.148L1.89062 113.148L1.89062 110.595L2.51074 110.595L2.64746 111.391L6.70996 111.391C7.06478 111.391 7.36263 111.324 7.60351 111.19C7.8444 111.054 8.02669 110.865 8.15039 110.624C8.27083 110.383 8.33105 110.105 8.33105 109.789C8.33105 109.47 8.27083 109.188 8.15039 108.944C8.02995 108.697 7.84928 108.505 7.6084 108.368C7.36751 108.228 7.06803 108.158 6.70996 108.158L2.64746 108.158L2.51074 108.954L1.89062 108.954L1.89062 106.4L2.51074 106.4L2.64746 107.196L6.70996 107.196C7.22428 107.196 7.66048 107.305 8.01855 107.523C8.37337 107.738 8.64355 108.041 8.8291 108.432C9.01139 108.822 9.10254 109.28 9.10254 109.804ZM9 105.6L8.38476 105.6L8.24805 104.804L2.64746 104.804L2.51074 105.6L1.89062 105.6L1.89062 104.804L1.89062 103.52L7.28613 101.229L7.28613 101.2L1.89062 98.9834L1.89062 96.8398L2.51074 96.8398L2.64746 97.6357L8.24804 97.6357L8.38476 96.8398L9 96.8398L9 99.3936L8.38476 99.3936L8.24804 98.5537L6.1875 98.5537L3.2041 98.5537L3.19922 98.5781L8.74609 100.888L8.74609 101.527L3.20898 103.915L3.21387 103.939L6.1875 103.905L8.24805 103.905L8.38476 103.046L9 103.046L9 105.6Z" fill="#FAFAFA" fill-opacity="0.7" style="fill:#FAFAFA;fill:color(display-p3 0.9804 0.9804 0.9804);fill-opacity:0.7;"/>
<path d="M9 53.8047L7.99902 53.8047L7.84277 53.0674L3.05273 53.0674L2.89648 53.8047L1.89062 53.8047L1.89062 53.0674L1.89062 50.3477C1.89062 49.7812 1.98991 49.2897 2.18848 48.873C2.38704 48.4564 2.66374 48.1357 3.01855 47.9111C3.37012 47.6833 3.78027 47.5693 4.24902 47.5693C4.71777 47.5693 5.12793 47.6833 5.47949 47.9111C5.83105 48.1357 6.10449 48.4564 6.2998 48.873C6.49512 49.2897 6.59277 49.7812 6.59277 50.3477L6.59277 51.3535L7.84277 51.3535L7.99902 50.6162L9 50.6162L9 53.8047ZM5.2793 51.3535L5.2793 50.3477C5.2793 49.9993 5.1849 49.7357 4.99609 49.5566C4.80404 49.3743 4.55827 49.2832 4.25879 49.2832C3.94954 49.2832 3.69564 49.3743 3.49707 49.5566C3.2985 49.7357 3.19922 49.9993 3.19922 50.3477L3.19922 51.3535L5.2793 51.3535ZM9 47.252L7.99902 47.252L7.84277 46.5146L3.05273 46.5146L2.89648 47.252L1.88574 47.252L1.88574 43.7559C1.88574 43.1927 1.97526 42.7044 2.1543 42.291C2.33333 41.8776 2.58887 41.5586 2.9209 41.334C3.24967 41.1094 3.6403 40.9971 4.09277 40.9971C4.50944 40.9971 4.89681 41.111 5.25488 41.3389C5.61296 41.5635 5.90104 41.8727 6.11914 42.2666C6.33398 42.6605 6.43978 43.1097 6.43652 43.6143L6.42187 44.8008L7.84277 44.8008L7.99902 44.0635L9 44.0635L9 47.252ZM9 42.75L6.22656 43.707L5.71875 42.2178L7.83301 41.3535L8.00391 40.6797L9 40.6797L9 42.75ZM5.1084 44.8008L5.1084 43.7363C5.1084 43.4043 5.0319 43.1488 4.87891 42.9697C4.72266 42.7907 4.49805 42.7012 4.20508 42.7012C3.90234 42.7012 3.65983 42.7923 3.47754 42.9746C3.29199 43.1569 3.19922 43.4173 3.19922 43.7559L3.19922 44.8008L5.1084 44.8008ZM9 40.3086L7.99902 40.3086L7.84277 39.5713L3.05273 39.5713L2.89648 40.3086L1.89062 40.3086L1.89062 34.6299L3.94141 34.6299L3.94141 35.9238L3.20898 35.9629L3.20898 37.8574L4.66894 37.8574L4.66894 35.5869L5.98242 35.5869L5.98242 37.8574L7.67676 37.8574L7.67676 35.8701L6.91016 35.8311L6.91016 34.5518L9 34.5518L9 40.3086ZM9 33.9512L7.99902 33.9512L7.84277 33.2187L3.05273 33.2187L2.89648 33.9512L1.89062 33.9512L1.89062 33.2187L1.89062 30.5967L6.57324 28.8779L6.57324 28.8486L1.89062 27.1787L1.89062 23.8633L2.89648 23.8633L3.05273 24.6006L7.84277 24.6006L7.99902 23.8633L9 23.8633L9 27.0469L7.99902 27.0469L7.84277 26.2803L6.91504 26.2803L3.57031 26.2412L3.56543 26.2705L9 28.2822L9 29.6299L3.62891 31.6709L3.63379 31.7051L6.68066 31.5879L7.84277 31.5879L7.99902 30.7627L9 30.7627L9 33.9512ZM9 23.5703L7.99902 23.5703L7.84277 22.833L3.05273 22.833L2.89648 23.5703L1.89062 23.5703L1.89062 20.3867L2.89648 20.3867L3.05273 21.124L7.84277 21.124L7.99902 20.3867L9 20.3867L9 23.5703ZM9.10254 16.3389C9.10254 16.9508 9.00488 17.4847 8.80957 17.9404C8.611 18.3929 8.32129 18.7428 7.94043 18.9902C7.55957 19.2376 7.09407 19.3613 6.54394 19.3613L3.05273 19.3613L2.89648 20.0937L1.89062 20.0937L1.89062 16.9102L2.89648 16.9102L3.05273 17.6475L6.54394 17.6475C6.8304 17.6475 7.06803 17.597 7.25683 17.4961C7.44238 17.3952 7.58073 17.2487 7.67187 17.0566C7.76302 16.8613 7.80859 16.6253 7.80859 16.3486C7.80859 16.0622 7.76302 15.8229 7.67187 15.6309C7.58073 15.4355 7.44238 15.2891 7.25683 15.1914C7.06803 15.0905 6.8304 15.04 6.54394 15.04L3.05273 15.04L2.89648 15.7725L1.89062 15.7725L1.89062 12.5889L2.89648 12.5889L3.05273 13.3262L6.54394 13.3262C7.08431 13.3262 7.54655 13.4531 7.93066 13.707C8.31152 13.9609 8.60286 14.3141 8.80469 14.7666C9.00325 15.2158 9.10254 15.7399 9.10254 16.3389ZM9 12.3398L7.99902 12.3398L7.84277 11.6074L3.05273 11.6074L2.89648 12.3398L1.89062 12.3398L1.89062 11.6074L1.89062 8.98535L6.57324 7.2666L6.57324 7.2373L1.89062 5.56738L1.89062 2.25195L2.89648 2.25195L3.05273 2.98926L7.84277 2.98926L7.99902 2.25195L9 2.25195L9 5.43555L7.99902 5.43555L7.84277 4.66894L6.91504 4.66895L3.57031 4.62988L3.56543 4.65918L9 6.6709L9 8.01855L3.6289 10.0596L3.63379 10.0937L6.68066 9.97656L7.84277 9.97656L7.99902 9.15137L9 9.15137L9 12.3398Z" fill="#FAFAFA" style="fill:#FAFAFA;fill:color(display-p3 0.9808 0.9808 0.9808);fill-opacity:1;"/>
</g>
<defs>
<clipPath id="clip0_0_429">
<rect width="150" height="11" fill="white" style="fill:white;fill-opacity:1;" transform="translate(0 150) rotate(-90)"/>
</clipPath>
</defs>
</svg>
