<svg width="11" height="140" viewBox="0 0 11 140" fill="none" xmlns="http://www.w3.org/2000/svg">
<g clip-path="url(#clip0_600_1255)">
<rect width="140" height="11" transform="translate(0 140) rotate(-90)" fill="#AE1300" style="fill:#AE1300;fill:color(display-p3 0.6843 0.0760 0.0000);fill-opacity:1;"/>
<path d="M9 121.805L7.99902 121.805L7.84277 121.067L3.05273 121.067L2.89648 121.805L1.89062 121.805L1.89062 121.067L1.89062 118.348C1.89062 117.781 1.98991 117.29 2.18848 116.873C2.38704 116.456 2.66374 116.136 3.01855 115.911C3.37012 115.683 3.78027 115.569 4.24902 115.569C4.71777 115.569 5.12793 115.683 5.47949 115.911C5.83105 116.136 6.10449 116.456 6.2998 116.873C6.49512 117.29 6.59277 117.781 6.59277 118.348L6.59277 119.354L7.84277 119.354L7.99902 118.616L9 118.616L9 121.805ZM5.2793 119.354L5.2793 118.348C5.2793 117.999 5.1849 117.736 4.99609 117.557C4.80404 117.374 4.55827 117.283 4.25879 117.283C3.94954 117.283 3.69564 117.374 3.49707 117.557C3.2985 117.736 3.19922 117.999 3.19922 118.348L3.19922 119.354L5.2793 119.354ZM9 115.252L7.99902 115.252L7.84277 114.515L3.05273 114.515L2.89648 115.252L1.88574 115.252L1.88574 111.756C1.88574 111.193 1.97526 110.704 2.1543 110.291C2.33333 109.878 2.58887 109.559 2.9209 109.334C3.24967 109.109 3.6403 108.997 4.09277 108.997C4.50944 108.997 4.89681 109.111 5.25488 109.339C5.61296 109.563 5.90104 109.873 6.11914 110.267C6.33398 110.66 6.43978 111.11 6.43652 111.614L6.42187 112.801L7.84277 112.801L7.99902 112.063L9 112.063L9 115.252ZM9 110.75L6.22656 111.707L5.71875 110.218L7.83301 109.354L8.00391 108.68L9 108.68L9 110.75ZM5.1084 112.801L5.1084 111.736C5.1084 111.404 5.0319 111.149 4.87891 110.97C4.72266 110.791 4.49805 110.701 4.20508 110.701C3.90234 110.701 3.65983 110.792 3.47754 110.975C3.29199 111.157 3.19922 111.417 3.19922 111.756L3.19922 112.801L5.1084 112.801ZM9 108.309L7.99902 108.309L7.84277 107.571L3.05273 107.571L2.89648 108.309L1.89062 108.309L1.89062 102.63L3.94141 102.63L3.94141 103.924L3.20898 103.963L3.20898 105.857L4.66894 105.857L4.66894 103.587L5.98242 103.587L5.98242 105.857L7.67676 105.857L7.67676 103.87L6.91016 103.831L6.91016 102.552L9 102.552L9 108.309ZM9 101.951L7.99902 101.951L7.84277 101.219L3.05273 101.219L2.89648 101.951L1.89062 101.951L1.89062 101.219L1.89062 98.5967L6.57324 96.8779L6.57324 96.8486L1.89062 95.1787L1.89062 91.8633L2.89648 91.8633L3.05273 92.6006L7.84277 92.6006L7.99902 91.8633L9 91.8633L9 95.0469L7.99902 95.0469L7.84277 94.2803L6.91504 94.2803L3.57031 94.2412L3.56543 94.2705L9 96.2822L9 97.6299L3.62891 99.6709L3.63379 99.7051L6.68066 99.5879L7.84277 99.5879L7.99902 98.7627L9 98.7627L9 101.951ZM9 91.5703L7.99902 91.5703L7.84277 90.833L3.05273 90.833L2.89648 91.5703L1.89062 91.5703L1.89062 88.3867L2.89648 88.3867L3.05273 89.124L7.84277 89.124L7.99902 88.3867L9 88.3867L9 91.5703ZM9.10254 84.3389C9.10254 84.9508 9.00488 85.4847 8.80957 85.9404C8.611 86.3929 8.32129 86.7428 7.94043 86.9902C7.55957 87.2376 7.09407 87.3613 6.54394 87.3613L3.05273 87.3613L2.89648 88.0937L1.89062 88.0937L1.89062 84.9102L2.89648 84.9102L3.05273 85.6475L6.54394 85.6475C6.8304 85.6475 7.06803 85.597 7.25683 85.4961C7.44238 85.3952 7.58073 85.2487 7.67187 85.0566C7.76302 84.8613 7.80859 84.6253 7.80859 84.3486C7.80859 84.0622 7.76302 83.8229 7.67187 83.6309C7.58073 83.4355 7.44238 83.2891 7.25683 83.1914C7.06803 83.0905 6.8304 83.04 6.54394 83.04L3.05273 83.04L2.89648 83.7725L1.89062 83.7725L1.89062 80.5889L2.89648 80.5889L3.05273 81.3262L6.54394 81.3262C7.08431 81.3262 7.54655 81.4531 7.93066 81.707C8.31152 81.9609 8.60286 82.3141 8.80469 82.7666C9.00325 83.2158 9.10254 83.7399 9.10254 84.3389ZM9 80.3398L7.99902 80.3398L7.84277 79.6074L3.05273 79.6074L2.89648 80.3398L1.89062 80.3398L1.89062 79.6074L1.89062 76.9854L6.57324 75.2666L6.57324 75.2373L1.89062 73.5674L1.89062 70.252L2.89648 70.252L3.05273 70.9893L7.84277 70.9893L7.99902 70.252L9 70.252L9 73.4355L7.99902 73.4355L7.84277 72.6689L6.91504 72.6689L3.57031 72.6299L3.56543 72.6592L9 74.6709L9 76.0186L3.6289 78.0596L3.63379 78.0937L6.68066 77.9766L7.84277 77.9766L7.99902 77.1514L9 77.1514L9 80.3398Z" fill="#FAFAFA" style="fill:#FAFAFA;fill:color(display-p3 0.9808 0.9808 0.9808);fill-opacity:1;"/>
<path d="M9 65.6045L8.38477 65.6045L8.24805 64.8086L2.64746 64.8086L2.51074 65.6045L1.89062 65.6045L1.89062 64.8086L1.89062 62.3379C1.89062 61.8301 1.98014 61.3971 2.15918 61.0391C2.33496 60.681 2.58236 60.4076 2.90137 60.2187C3.22038 60.0299 3.5931 59.9355 4.01953 59.9355C4.44922 59.9355 4.82357 60.0299 5.14258 60.2187C5.46159 60.4076 5.70898 60.681 5.88477 61.0391C6.06055 61.3971 6.14844 61.8301 6.14844 62.3379L6.14844 63.8467L8.24805 63.8467L8.38477 63.0508L9 63.0508L9 65.6045ZM5.39648 63.8467L5.39648 62.3379C5.39648 61.8561 5.2679 61.4964 5.01074 61.2588C4.75033 61.0179 4.42318 60.8975 4.0293 60.8975C3.63542 60.8975 3.30664 61.0179 3.04297 61.2588C2.7793 61.4964 2.64746 61.8561 2.64746 62.3379L2.64746 63.8467L5.39648 63.8467ZM9 59.2666L8.38477 59.2666L8.24805 58.4707L2.64746 58.4707L2.51074 59.2666L1.89551 59.2666L1.89551 56.0977C1.89551 55.5801 1.97363 55.1439 2.12988 54.7891C2.28288 54.431 2.50586 54.1592 2.79883 53.9736C3.0918 53.7881 3.44987 53.6953 3.87305 53.6953C4.28971 53.6953 4.63965 53.7865 4.92285 53.9687C5.20605 54.1478 5.4209 54.4033 5.56738 54.7354C5.71061 55.0674 5.78711 55.4613 5.79687 55.917L5.82617 57.5088L8.24805 57.5088L8.38477 56.7129L9 56.7129L9 59.2666ZM9 54.5742L5.45019 56.1562L5.44043 55.1943L8.28223 53.8809L8.37012 53.3877L9 53.3877L9 54.5742ZM5.06934 57.5088L5.06934 56.1953C5.06934 55.6582 4.9668 55.2676 4.76172 55.0234C4.55664 54.7793 4.25716 54.6572 3.86328 54.6572C3.48893 54.6572 3.19271 54.7744 2.97461 55.0088C2.75651 55.2432 2.64746 55.6061 2.64746 56.0977L2.64746 57.5088L5.06934 57.5088ZM9 52.499L8.38477 52.499L8.24805 51.7031L2.64746 51.7031L2.51074 52.499L1.89062 52.499L1.89062 47.2354L3.59961 47.2354L3.59961 48.0068L2.63281 48.1143L2.63281 50.7412L4.94727 50.7412L4.94726 48.1191L5.7041 48.1191L5.7041 50.7412L8.27734 50.7412L8.27734 47.958L7.2959 47.8506L7.2959 47.084L9 47.084L9 52.499ZM9 46.0586L8.38476 46.0586L8.24805 45.2627L2.64746 45.2627L2.51074 46.0586L1.89062 46.0586L1.89062 45.2627L1.89062 43.9785L7.28613 41.6885L7.28613 41.6592L1.89062 39.4424L1.89062 37.2988L2.51074 37.2988L2.64746 38.0947L8.24805 38.0947L8.38476 37.2988L9 37.2988L9 39.8525L8.38476 39.8525L8.24805 39.0127L6.1875 39.0127L3.2041 39.0127L3.19922 39.0371L8.74609 41.3467L8.74609 41.9863L3.20898 44.374L3.21387 44.3984L6.1875 44.3643L8.24805 44.3643L8.38476 43.5049L9 43.5049L9 46.0586ZM9 36.4443L8.38476 36.4443L8.24805 35.6484L2.64746 35.6484L2.51074 36.4443L1.89062 36.4443L1.89062 33.8906L2.51074 33.8906L2.64746 34.6865L8.24805 34.6865L8.38476 33.8906L9 33.8906L9 36.4443ZM9.10254 29.8037C9.10254 30.292 9.00651 30.7282 8.81445 31.1123C8.62239 31.4964 8.34896 31.7992 7.99414 32.0205C7.63607 32.2419 7.20801 32.3525 6.70996 32.3525L2.64746 32.3525L2.51074 33.1484L1.89062 33.1484L1.89062 30.5947L2.51074 30.5947L2.64746 31.3906L6.70996 31.3906C7.06478 31.3906 7.36263 31.3239 7.60351 31.1904C7.8444 31.0537 8.02669 30.8649 8.15039 30.624C8.27083 30.3831 8.33105 30.1048 8.33105 29.7891C8.33105 29.4701 8.27083 29.1885 8.15039 28.9443C8.02995 28.6969 7.84928 28.5049 7.6084 28.3682C7.36751 28.2282 7.06803 28.1582 6.70996 28.1582L2.64746 28.1582L2.51074 28.9541L1.89062 28.9541L1.89062 26.4004L2.51074 26.4004L2.64746 27.1963L6.70996 27.1963C7.22428 27.1963 7.66048 27.3053 8.01855 27.5234C8.37337 27.7383 8.64355 28.041 8.8291 28.4316C9.01139 28.8223 9.10254 29.2796 9.10254 29.8037ZM9 25.5996L8.38476 25.5996L8.24805 24.8037L2.64746 24.8037L2.51074 25.5996L1.89062 25.5996L1.89062 24.8037L1.89062 23.5195L7.28613 21.2295L7.28613 21.2002L1.89062 18.9834L1.89062 16.8398L2.51074 16.8398L2.64746 17.6357L8.24805 17.6357L8.38476 16.8398L9 16.8398L9 19.3936L8.38476 19.3936L8.24805 18.5537L6.1875 18.5537L3.2041 18.5537L3.19922 18.5781L8.74609 20.8877L8.74609 21.5273L3.20898 23.915L3.21387 23.9395L6.1875 23.9053L8.24805 23.9053L8.38476 23.0459L9 23.0459L9 25.5996Z" fill="#FAFAFA" fill-opacity="0.7" style="fill:#FAFAFA;fill:color(display-p3 0.9804 0.9804 0.9804);fill-opacity:0.7;"/>
</g>
<defs>
<clipPath id="clip0_600_1255">
<rect width="140" height="11" fill="white" style="fill:white;fill-opacity:1;" transform="translate(0 140) rotate(-90)"/>
</clipPath>
</defs>
</svg>
